<svg xmlns="http://www.w3.org/2000/svg" width="99.166" height="88.851" viewBox="0 0 99.166 88.851">
    <defs>
        <style>
            .cls-1{fill:#ffe904}.cls-2{fill:#050d0f}.cls-3{fill:#10cfc9}.cls-4{fill:#bd1718}
        </style>
    </defs>
    <g id="Gruppe_1606" data-name="Gruppe 1606" transform="translate(-3355.039 -249.793)">
        <path id="Pfad_779" d="M3409.3 387.621c21.69.328 39.5-13.877 39.771-31.726.2-13.079-9.066-24.486-22.566-29.778-5.294-9.791-18.514-16.853-34.09-17.088-20.417-.308-37.15 11.228-37.374 25.768-.138 8.951 6.013 16.953 15.526 21.854.961 16.964 17.838 30.649 38.733 30.97z" class="cls-1" data-name="Pfad 779" transform="translate(0 -48.983)"/>
        <path id="_Pfad_" d="M3507.535 336.868v-16.413c0-7.97 13.039-14.49 28.976-14.49s28.977 6.52 28.977 14.49v16.413zm14.486-52.633a14.488 14.488 0 1 1 14.488 14.487 14.488 14.488 0 0 1-14.488-14.487z" class="cls-2" data-name="&lt;Pfad&gt;" transform="translate(-127.6 -16.501)"/>
        <path id="_Pfad_2" d="M3487.583 316.915V300.5c0-7.97 13.04-14.49 28.977-14.49s28.977 6.52 28.977 14.49v16.413zm14.487-52.633a14.488 14.488 0 1 1 14.489 14.487 14.489 14.489 0 0 1-14.489-14.487z" class="cls-3" data-name="&lt;Pfad&gt;" transform="translate(-110.905)"/>
        <path id="Pfad_780" d="M3855.618 454.888c2.83 2.013 11.447 10.734 11.447 10.734s2.643-13.076 3.572-15.28c.236-.554-15.02 4.546-15.02 4.546" class="cls-4" data-name="Pfad 780" transform="translate(-416.435 -167.131)"/>
        <path id="Pfad_781" d="M3414.247 316.325c2.119 2.751 11.162 11.03 11.162 11.03s-12.965 3.139-15.133 4.152c-.544.257 3.971-15.182 3.971-15.182" class="cls-4" data-name="Pfad 781" transform="translate(-45.641 -55.022)"/>
    </g>
</svg>
