<svg xmlns="http://www.w3.org/2000/svg" width="128.89" height="116.903" viewBox="0 0 128.89 116.903">
    <defs>
        <style>
            .cls-1{fill:#d0fbfb}.cls-2{fill:#10cfc9}.cls-3{fill:#fffcdc}.cls-4{fill:#050d0f}.cls-5{fill:#ffe904}.cls-6{fill:#fff}.cls-7{fill:#4ebbb7}
        </style>
    </defs>
    <g id="Gruppe_1622" data-name="Gruppe 1622" transform="translate(-3276.439 -1205.191)">
        <ellipse id="Ellipse_44" cx="33.113" cy="61.441" class="cls-1" data-name="Ellipse 44" rx="33.113" ry="61.441" transform="rotate(-84.26 2362.253 -1156.243)"/>
        <path id="Rechteck_1748" d="M0 0h59.402v71.533H0z" class="cls-2" data-name="Rechteck 1748" transform="rotate(-8.219 10188.956 -22430.575)"/>
        <path id="Pfad_802" d="M3584.443 1352.657l-43.527 6.306s-12.823 2.609-14.957-8.884c-.05-.269-6.42-44.314-6.42-44.314l60.686-8.3 7.324 50.551" class="cls-3" data-name="Pfad 802" transform="translate(-202.105 -76.713)"/>
        <path id="Pfad_803" d="M3544.334 1222.925l-2.569-17.734-62 8.983v.04l-.007-.045-4.692 4.405 2.569 17.734 4.671-4.385z" class="cls-4" data-name="Pfad 803" transform="translate(-165.133)"/>
        <g id="Gruppe_1619" data-name="Gruppe 1619" transform="translate(3320.845 1209.005)">
            <g id="Gruppe_1617" data-name="Gruppe 1617" transform="translate(0 3.97)">
                <path id="Pfad_804" d="M3646.843 1257.993c-.8-1.363-4.426-5.615-4.426-5.615s6.039-.689 7.075-1.026c.261-.085-2.649 6.64-2.649 6.64" class="cls-2" data-name="Pfad 804" transform="translate(-3625.108 -1251.352)"/>
                <path id="Pfad_805" d="M3595.521 1265.241c-.8-1.363-4.426-5.614-4.426-5.614s6.038-.69 7.075-1.026c.26-.085-2.649 6.64-2.649 6.64" class="cls-2" data-name="Pfad 805" transform="translate(-3582.44 -1257.378)"/>
                <path id="Pfad_806" d="M3544.2 1272.489c-.8-1.363-4.426-5.615-4.426-5.615s6.038-.689 7.075-1.026c.26-.085-2.649 6.64-2.649 6.64" class="cls-2" data-name="Pfad 806" transform="translate(-3539.773 -1263.404)"/>
            </g>
            <g id="Gruppe_1618" data-name="Gruppe 1618" transform="translate(26.218)">
                <path id="Pfad_807" d="M3802.318 1234.451c-.8-1.363-4.426-5.615-4.426-5.615s6.038-.689 7.075-1.026c.26-.085-2.649 6.64-2.649 6.64" class="cls-2" data-name="Pfad 807" transform="translate(-3780.583 -1227.81)"/>
                <path id="Pfad_808" d="M3751 1241.7c-.8-1.363-4.426-5.615-4.426-5.615s6.038-.689 7.075-1.026c.261-.085-2.649 6.64-2.649 6.64" class="cls-2" data-name="Pfad 808" transform="translate(-3737.915 -1233.836)"/>
                <path id="Pfad_809" d="M3699.674 1248.947c-.8-1.363-4.426-5.615-4.426-5.615s6.038-.69 7.075-1.026c.26-.085-2.65 6.64-2.65 6.64" class="cls-2" data-name="Pfad 809" transform="translate(-3695.248 -1239.862)"/>
            </g>
        </g>
        <g id="Gruppe_1621" data-name="Gruppe 1621" transform="translate(3335.578 1233.808)">
            <path id="Pfad_810" d="M3653.381 1375.359c-5.854-2.046-9.581 3.242-10.647 5.036-1.735-1.543-6.607-5.109-11.441-1.628-6.022 4.336-6.374 12.908 4.868 19.731 4.816 2.924 10.021 6.064 10.021 6.064s4.336-4.724 8.132-8.9c8.842-9.735 6.072-17.855-.933-20.303z" class="cls-5" data-name="Pfad 810" transform="translate(-3627.14 -1374.895)"/>
            <path id="Pfad_811" d="M3650.1 1377.339a5.159 5.159 0 0 1 2.487.281 6.843 6.843 0 0 1 4.677 4.7 8.537 8.537 0 0 1-.4 4.959 20.555 20.555 0 0 1-4.33 6.771 2483.23 2483.23 0 0 1-6.8 7.448c-1.929-1.165-5.229-3.16-8.338-5.047a20.552 20.552 0 0 1-6.074-5.264 8.54 8.54 0 0 1-1.789-4.642 6.842 6.842 0 0 1 3.151-5.833 5.159 5.159 0 0 1 2.3-.975c2.631-.381 5.173 1.586 6.144 2.449l2.168 1.928 1.483-2.494c.536-.9 2.5-3.874 5.311-4.28m-.343-2.371c-3.775.547-6.2 4.036-7.026 5.427-1.329-1.181-4.5-3.549-8.08-3.03a7.559 7.559 0 0 0-3.362 1.4c-6.022 4.336-6.374 12.908 4.868 19.731 4.816 2.924 10.021 6.064 10.021 6.064s4.336-4.724 8.132-8.9c8.843-9.733 6.073-17.852-.932-20.3a7.559 7.559 0 0 0-3.621-.391z" class="cls-2" data-name="Pfad 811" transform="translate(-3627.14 -1374.896)"/>
            <g id="Gruppe_1620" data-name="Gruppe 1620" transform="translate(3.375 5.46)">
                <path id="Pfad_812" d="M3664.238 1407.275c.657.839 3.451 3.357 3.451 3.357s-3.971.994-4.633 1.311c-.167.08 1.182-4.668 1.182-4.668" class="cls-6" data-name="Pfad 812" transform="translate(-3660.362 -1407.275)"/>
                <path id="Pfad_813" d="M3651.817 1439c-.419.979-1.281 4.641-1.281 4.641s-2.783-3-3.38-3.43c-.15-.108 4.66-1.212 4.66-1.212" class="cls-6" data-name="Pfad 813" transform="translate(-3647.153 -1433.649)"/>
            </g>
        </g>
        <path id="Pfad_814" d="M3587.926 1566.788s15.81 7.408 13.148-10.969l45.109-6.77s1.76 12.108-5.868 13.246c-9.324 1.391-39.873 5.746-39.873 5.746s-8.052 1.451-12.516-1.253z" class="cls-7" data-name="Pfad 814" transform="translate(-258.96 -285.872)"/>
    </g>
</svg>
