<svg xmlns="http://www.w3.org/2000/svg" width="1920" height="653.6" viewBox="0 0 1920 653.6">
    <defs>
        <style>
            .cls-1{clip-path:url(#clip-path)}.cls-2{fill:#ffe904}
        </style>
        <clipPath id="clip-path">
            <path id="Pfad_996" d="M1.4 1.2H1920l-.9 653.6H0z" data-name="Pfad 996" transform="translate(0 -1.2)"/>
        </clipPath>
    </defs>
    <g id="wellenlinie" transform="translate(0 -1.199)">
        <g id="Gruppe_1742" class="cls-1" data-name="Gruppe 1742" transform="translate(0 1.2)">
            <path id="Pfad_767" d="M8772.637-873.6c-4.8-27.5-37.282-44.7-72.466-38.5-74.765 13.2-171.419-9.1-248.783-85.5-75.564-74.7-125.342-190.7-280.569-163.3-155.327 27.4-168.721 164.2-214.3 260.2-46.478 98.2-123.442 141.5-198.107 154.6s-116.946-57.4-194.212-133.7c-75.564-74.7-182.515-190.1-337.742-162.7-155.327 27.4-209.2 194.6-254.78 290.6-46.479 98.2-80.163 158.7-154.927 171.9-74.666 13.2-165.023-29.6-242.287-105.9-75.564-74.7-138.932-217.1-294.259-189.7s-204.7 193.8-250.183 289.8c-46.478 98.2-80.163 158.7-154.827 171.9-74.765 13.2-116.646-57.5-193.909-133.8-75.565-74.7-180.815-180.7-336.143-153.3s-211.1 185.2-256.58 281.3c-46.479 98.2-80.163 158.7-154.928 171.9s-121.343-56.6-198.607-133c-75.564-74.7-173.119-191.7-328.346-164.3-155.327 27.4-214.2 195.5-259.678 291.5-46.479 98.2-80.163 158.7-154.827 171.9-74.765 13.2-116.546-57.5-193.809-133.8-75.565-74.7-188.512-169.7-343.839-142.3s-203.6 174.4-249.083 270.4c-46.478 98.2-80.162 158.7-154.827 171.9s-110.148-48.9-187.412-125.3c-75.565-74.7-176.417-210.4-331.645-183.1-155.327 27.4-222 206.5-267.574 302.5-46.478 98.2-80.162 158.7-154.927 171.9-74.665 13.2-129.039-74.6-206.3-150.9-34.088-33.7-69.771-70.6-112.951-98.5l-312.653 11c-79.063 62-122.043 163.7-154.727 232.7-46.478 98.2-80.162 158.7-154.828 171.9s-127.04-32.2-204.3-108.5c-75.565-74.7-165.522-206.8-320.75-179.4-155.327 27.4-216 186.1-261.477 282.1-46.583 98.1-80.267 158.7-154.932 171.9s-100.553-99-177.816-175.3c-75.565-74.7-196.708-139.2-351.935-111.8s-172.219 203.2-217.7 299.2c-46.478 98.2-119.244 140.7-193.909 153.9-74.765 13.2-127.04-32.2-204.3-108.5-75.565-74.7-156.227-208.4-311.454-181.1-155.329 27.4-225.297 187.7-270.876 283.8-46.478 98.2-80.162 158.7-154.827 171.9-74.765 13.2-127.04-32.2-204.3-108.5-75.564-74.7-169.62-167.6-324.948-140.2-35.183 6.2-59.872 33.5-54.974 61s37.282 44.7 72.566 38.5c74.665-13.2 127.041 32.2 204.3 108.5 75.565 74.7 198.607 201.1 353.934 173.8 155.227-27.4 182.914-180.4 228.393-276.5 46.478-98.2 80.162-158.7 154.827-171.9 74.765-13.2 171.02 9.4 248.284 85.7 75.565 74.7 132.938 237.5 288.165 210.1 155.327-27.4 204.7-193.9 250.183-290 46.478-98.2 80.162-158.7 154.827-171.9s126.941 32.2 204.2 108.5C-5.648 616.7 98.7 746.4 253.93 719.1c155.327-27.4 201.605-183.7 247.084-279.8 46.478-98.2 80.162-158.7 154.827-171.9 74.765-13.2 127.14 32.2 204.3 108.6 75.565 74.7 176.917 214.6 332.244 187.2s204.6-193.9 250.183-290c46.478-98.2 80.162-158.7 154.828-171.9 74.765-13.2 127.04 32.2 204.3 108.5 75.565 74.7 172.219 215.5 327.447 188.1 155.327-27.4 181.615-204.9 227.094-301 46.478-98.2 107.949-148.6 182.614-161.7 74.765-13.2 127.041 32.2 204.3 108.5 75.565 74.7 175.218 205.3 330.445 177.9S3280.012 37 3325.49-59c46.578-98.2 80.162-158.7 154.927-171.9 74.665-13.2 127.041 32.2 204.3 108.5 75.565 74.7 170.42 206.1 325.747 178.7C4165.7 29 4221.57-129 4267.049-225c46.579-98.2 80.163-158.7 154.928-171.9s127.041 32.2 204.3 108.5c75.568 74.7 176.723 214.7 331.948 187.3 155.327-27.4 204.9-194 250.382-290 46.479-98.2 80.163-158.7 154.928-171.9 74.665-13.2 127.041 32.2 204.3 108.5 75.564 74.7 189.011 202.8 344.238 175.4s192.61-182.1 238.089-278.2c46.478-98.2 80.163-158.7 154.827-171.9s127.041 32.2 204.3 108.5c75.564 74.7 174.918 205.3 330.145 177.9 155.327-27.4 206.7-184.6 252.282-280.7 46.478-98.2 80.163-158.7 154.927-171.9s127.041 32.2 204.3 108.5c75.564 74.7 169.621 167.6 324.948 140.2s211.9-146.9 257.479-242.9c46.578-98.2 80.163-158.7 154.927-171.9s127.041 32.2 204.4 108.5c75.564 74.7 169.72 167.6 324.947 140.2 35.203-6 59.791-33.4 54.993-60.8z" class="cls-2" transform="translate(1.05 -1.2)"/>
        </g>
    </g>
</svg>
