<svg xmlns="http://www.w3.org/2000/svg" width="21.202" height="25.531" viewBox="0 0 21.202 25.531">
    <defs>
        <style>
            .cls-1{fill:#fff}
        </style>
    </defs>
    <path id="Pfad_212" d="M302.418 300.312l-.214-.445h-2.814a5.537 5.537 0 0 0-1.2-3.868 3.724 3.724 0 0 0-2.81-1.074 3.271 3.271 0 0 0-2.4.983 6.757 6.757 0 0 0-1.552 3.959h-2.412l-.2.472C283.4 312.8 284.1 316.6 287.14 318.932c1.235.951 4.495 1.519 7.9 1.519 3.651 0 7.476-.651 9.173-2.183 4.627-4.175-1.124-16.558-1.795-17.956zm-9.1-1.919c.625-1.9 1.707-1.9 2.062-1.9a2.206 2.206 0 0 1 1.678.591 4.133 4.133 0 0 1 .764 2.782h-4.816a7.65 7.65 0 0 1 .313-1.473zm-3.272 3.043h11.165a44.193 44.193 0 0 1 2.474 6.927l-5.363-5.045-6.4 6.927-3.67-4.306a80.323 80.323 0 0 1 1.8-4.5zm-2.656 6.111l4.53 5.315 6.4-6.928 6.217 5.85.125 1.893-6.291-6.257-6.483 7.018-4.928-5.187zm15.775 9.556c-2.683 2.424-13.024 2.158-15.07.585-1.06-.815-2.482-1.944-1.245-7.178l5.078 5.957 6.483-7.018 5.838 5.493a3.837 3.837 0 0 1-1.083 2.158z" class="cls-1" data-name="Pfad 212" transform="translate(-284.796 -294.92)"/>
</svg>
