<svg xmlns="http://www.w3.org/2000/svg" width="122.285" height="98.767" viewBox="0 0 122.285 98.767">
    <defs>
        <style>
            .cls-1{fill:#d0fbfb}.cls-2{fill:#ffe904}.cls-2,.cls-4{fill-rule:evenodd}.cls-3{fill:#050d0f}.cls-4{fill:#10cfc9}
        </style>
    </defs>
    <g id="Gruppe_1612" data-name="Gruppe 1612" transform="translate(-4471.822 -157.913)">
        <path id="Pfad_782" d="M4581.577 376.144l-33.958-3.714-38.349 8.8-37.448-5.081 12.53 52.23 36.554 7.587 36.218-14.094 36.983 6.506z" class="cls-1" data-name="Pfad 782" transform="translate(0 -179.281)"/>
        <g id="Gruppe_1610" data-name="Gruppe 1610" transform="translate(4485.711 157.909)">
            <path id="Pfad_783" d="M4585.076 233.662l10.192-26.357c3.981-9.234.033-21.884-8.448-27.068a20.108 20.108 0 0 0-27.646 6.666c-5.184 8.479-2.934 21.537 4.787 27.917l21.114 18.841zm-10.329-43.628a7.34 7.34 0 1 1-5.415 8.856 7.34 7.34 0 0 1 5.415-8.856z" class="cls-2" data-name="Pfad 783" transform="translate(-4556.374 -174.095)"/>
            <circle id="Ellipse_41" cx="7.643" cy="7.643" r="7.643" class="cls-3" data-name="Ellipse 41" transform="translate(14.9 12.25)"/>
            <path id="Pfad_784" d="M4599.988 214.294l10.191-26.357c3.981-9.234.033-21.884-8.447-27.068a20.107 20.107 0 0 0-27.646 6.666c-5.185 8.479-2.935 21.537 4.788 27.917l21.114 18.842zm-10.329-43.629a7.34 7.34 0 1 1-5.415 8.856 7.34 7.34 0 0 1 5.415-8.856z" class="cls-4" data-name="Pfad 784" transform="translate(-4568.836 -157.909)"/>
        </g>
        <g id="Gruppe_1611" data-name="Gruppe 1611" transform="translate(4531.27 178.421)">
            <path id="Pfad_785" d="M4848.928 354.761l23.35-15.917c8.519-5.344 12.446-18 8.406-27.081a20.107 20.107 0 0 0-26.545-10.2c-9.081 4.039-14.639 16.068-11.9 25.7l6.691 27.5zm16.255-41.784a7.34 7.34 0 1 1-9.484 4.219 7.34 7.34 0 0 1 9.484-4.219z" class="cls-4" data-name="Pfad 785" transform="translate(-4840.251 -297.016)"/>
            <circle id="Ellipse_42" cx="7.643" cy="7.643" r="7.643" class="cls-3" data-name="Ellipse 42" transform="translate(13.372 12.37)"/>
            <path id="Pfad_786" d="M4841.1 337.72l23.35-15.917c8.519-5.344 12.446-18 8.406-27.081a20.106 20.106 0 0 0-26.544-10.2c-9.082 4.039-14.64 16.067-11.9 25.7l6.692 27.5zm16.255-41.784a7.34 7.34 0 1 1-9.484 4.219 7.34 7.34 0 0 1 9.484-4.219z" class="cls-2" data-name="Pfad 786" transform="translate(-4833.712 -282.775)"/>
        </g>
    </g>
</svg>
