<svg xmlns="http://www.w3.org/2000/svg" width="129.648" height="95.319" viewBox="0 0 129.648 95.319">
    <defs>
        <style>
            .cls-1{fill:#ffe904}.cls-2{fill:#10cfc9}.cls-3{fill:#050d0f}.cls-4{fill:#bd1718}.cls-5{fill:#fb2727}
        </style>
    </defs>
    <g id="Gruppe_1627" data-name="Gruppe 1627" transform="translate(-4440.821 -1261.127)">
        <path id="Pfad_832" d="M4553.6 1508.32h-112.779l12.874-62.634h112.775z" class="cls-1" data-name="Pfad 832" transform="translate(0 -151.874)"/>
        <path id="Pfad_833" d="M4797.51 1322.164a7.414 7.414 0 0 0-2.971-4.56q-.274-.207-.562-.4l-6.341-3.957-46.453-42.711-24.333 54.678 48.516 5.406c-.684 5.454-3.717 10.962-5.362 13.617-.539.847-.868 1.686.336 2.008l7.118 1.9a1.938 1.938 0 0 0 2.325-.981c3.25-4.583 4.626-10.67 5.2-15.475l4.863.542 2.5.815a36.548 36.548 0 0 0 5.131 1.537 7.512 7.512 0 0 0 4.373-.618 8.4 8.4 0 0 0 4.072-4.49c.978-2.22 2.03-4.841 1.588-7.311z" class="cls-2" data-name="Pfad 833" transform="translate(-227.145 -7.746)"/>
        <path id="Pfad_834" d="M4731.072 1302.47c-6.284 15.029-16.86 25.468-22.325 22.021-3.973-2.507-6.28-16.511.566-32.464 6.9-16.085 16.151-23.684 20.683-22.439 6.504 1.787 7.359 17.853 1.076 32.882z" class="cls-3" data-name="Pfad 834" transform="translate(-217.352 -6.854)"/>
        <path id="Pfad_835" d="M4706.269 1321.733a5.211 5.211 0 0 1-2.418-.784c-4.563-2.879-6.751-17.408.207-33.622 4.075-9.5 8.463-15.035 11.427-18.009 3.882-3.9 7.66-5.7 10.36-4.962a6.953 6.953 0 0 1 4.242 3.959c1.5 3.071 2.089 7.719 1.674 13.088a56.193 56.193 0 0 1-4.227 17.1c-4.827 11.543-12.465 20.953-18.577 22.884a7.153 7.153 0 0 1-2.688.346zm18.536-55.669c-4.069-.306-12.5 6.789-19.03 22-6.682 15.568-4.4 29.117-.927 31.306a4.117 4.117 0 0 0 3.549.232c5.535-1.748 12.858-10.927 17.416-21.824 5.018-12 5.1-23.5 2.6-28.646a5.1 5.1 0 0 0-3.058-2.976 2.872 2.872 0 0 0-.555-.092z" class="cls-2" data-name="Pfad 835" transform="translate(-212.953 -2.523)"/>
        <g id="Gruppe_1627-2" data-name="Gruppe 1627" transform="translate(4503.537 1274.002)">
            <path id="Pfad_836" d="M4857.357 1475.9c-1.373-.1-6.205.407-6.205.407s2.48-4.668 2.75-5.577c.067-.229 3.455 5.17 3.455 5.17" class="cls-1" data-name="Pfad 836" transform="translate(-4841.201 -1446.479)"/>
            <path id="Pfad_837" d="M4831.28 1518.481c-1.353-.254-6.21-.314-6.21-.314s3-4.349 3.377-5.221c.093-.219 2.833 5.535 2.833 5.535" class="cls-1" data-name="Pfad 837" transform="translate(-4819.737 -1481.22)"/>
            <path id="Pfad_838" d="M4801.1 1554.959c-1.319-.391-6.145-.952-6.145-.952s3.436-4.017 3.9-4.845c.115-.209 2.248 5.8 2.248 5.8" class="cls-1" data-name="Pfad 838" transform="translate(-4794.959 -1511.023)"/>
            <path id="Pfad_839" d="M4901.684 1337.349c-1.309.423-5.606 2.689-5.606 2.689s.563-5.255.475-6.2c-.022-.238 5.132 3.511 5.132 3.511" class="cls-1" data-name="Pfad 839" transform="translate(-4878.169 -1333.827)"/>
            <path id="Pfad_840" d="M4892.726 1385.5c-1.35.268-5.88 2.021-5.88 2.021s1.167-5.155 1.19-6.1c0-.238 4.69 4.082 4.69 4.082" class="cls-1" data-name="Pfad 840" transform="translate(-4870.573 -1372.979)"/>
            <path id="Pfad_841" d="M4877.656 1429.689c-1.37.128-6.057 1.4-6.057 1.4s1.692-5.007 1.812-5.948c.03-.237 4.245 4.543 4.245 4.543" class="cls-1" data-name="Pfad 841" transform="translate(-4858.026 -1408.967)"/>
        </g>
        <g id="Gruppe_1628" data-name="Gruppe 1628" transform="translate(4446.819 1261.127)">
            <path id="Pfad_842" d="M4509.265 1317.653c-2.464-.721-34.573-6.575-34.573-6.575s3.939-11.2 4.371-12.455c.107-.315 30.2 19.03 30.2 19.03" class="cls-4" data-name="Pfad 842" transform="translate(-4474.692 -1291.98)"/>
            <path id="Pfad_843" d="M4626.354 1278.653c-2.1-2.113-15.189-12.918-15.189-12.918s5.514-3.544 6.813-4.6c.322-.273 8.376 17.518 8.376 17.518z" class="cls-5" data-name="Pfad 843" transform="translate(-4586.997 -1261.127)"/>
            <path id="Pfad_844" d="M4574.9 1457.424c-2.947.452-19.892 1.381-19.892 1.381s2.335 6.125 2.75 7.75c.098.41 17.142-9.131 17.142-9.131z" class="cls-5" data-name="Pfad 844" transform="translate(-4540.78 -1422.661)"/>
        </g>
    </g>
</svg>
