<svg xmlns="http://www.w3.org/2000/svg" width="106.968" height="121.515" viewBox="0 0 106.968 121.515">
  <defs>
    <style>
      .cls-1 {
        fill: #10cfc9;
      }

      .cls-2 {
        fill: #050d0f;
      }

      .cls-3 {
        fill: #fff7a1;
      }

      .cls-4 {
        fill: #f5eb63;
      }

      .cls-5 {
        fill: #ffe904;
      }

      .cls-6 {
        fill: #fffcdc;
      }

      .cls-7 {
        fill: #bd1718;
      }

      .cls-8 {
        fill: #fb2727;
      }
    </style>
  </defs>
  <g id="Gruppe_1616" data-name="Gruppe 1616" transform="translate(-5674.055)">
    <ellipse id="Ellipse_43" data-name="Ellipse 43" class="cls-1" cx="51.855" cy="27.947" rx="51.855" ry="27.947" transform="translate(5674.055 65.732) rotate(-3.555)"/>
    <path id="Pfad_787" data-name="Pfad 787" class="cls-2" d="M5828.761,327.2l-42.32-5.657,4.961,40.3,37.358,7.92,25.907-8.914,3.97-40.444Z" transform="translate(-94.343 -268.971)"/>
    <g id="Gruppe_1613" data-name="Gruppe 1613" transform="translate(5690.653 44.192)">
      <path id="Pfad_788" data-name="Pfad 788" class="cls-3" d="M5777.441,281.553l35.346-6.3,39.136,5.163L5821.1,287.21Z" transform="translate(-5777.441 -275.255)"/>
      <path id="Pfad_789" data-name="Pfad 789" class="cls-4" d="M5997.6,275.255l1,40.467,34.04,5.14,4.1-40.444Z" transform="translate(-5962.254 -275.255)"/>
      <path id="Pfad_790" data-name="Pfad 790" class="cls-5" d="M5821.1,362.707l-38.541-7.92-5.119-40.3,43.659,5.657Z" transform="translate(-5777.441 -308.185)"/>
      <path id="Pfad_791" data-name="Pfad 791" class="cls-6" d="M6049.377,314.2l30.823-6.792-4.1,40.444-26.728,8.914Z" transform="translate(-6005.718 -302.251)"/>
    </g>
    <g id="Gruppe_1614" data-name="Gruppe 1614" transform="translate(5692.531 52.649)">
      <path id="Pfad_792" data-name="Pfad 792" class="cls-1" d="M6188.659,335.966c-1.08-1.509-5.752-6.1-5.752-6.1s6.983-1.431,8.16-1.931c.3-.127-2.408,8.032-2.408,8.032" transform="translate(-6119.687 -327.933)"/>
      <path id="Pfad_793" data-name="Pfad 793" class="cls-1" d="M6126.467,350.441c-1.08-1.509-5.752-6.1-5.752-6.1s6.983-1.431,8.16-1.931c.295-.127-2.408,8.032-2.408,8.032" transform="translate(-6067.48 -340.083)"/>
      <path id="Pfad_794" data-name="Pfad 794" class="cls-1" d="M6062.619,367.285c-1.08-1.509-5.751-6.1-5.751-6.1s6.983-1.43,8.16-1.93c.3-.127-2.409,8.032-2.409,8.032" transform="translate(-6013.884 -354.224)"/>
      <path id="Pfad_795" data-name="Pfad 795" class="cls-1" d="M5984.418,369.914c-.464-1.8-3.173-7.762-3.173-7.762s7.031,1.176,8.309,1.133c.321-.012-5.135,6.629-5.135,6.629" transform="translate(-5950.402 -356.658)"/>
      <path id="Pfad_796" data-name="Pfad 796" class="cls-1" d="M5921.18,361.057c-.464-1.8-3.172-7.762-3.172-7.762s7.03,1.176,8.308,1.133c.321-.012-5.136,6.629-5.136,6.629" transform="translate(-5897.317 -349.223)"/>
      <path id="Pfad_797" data-name="Pfad 797" class="cls-1" d="M5857.944,352.2c-.465-1.8-3.173-7.762-3.173-7.762s7.03,1.176,8.308,1.133c.321-.012-5.135,6.629-5.135,6.629" transform="translate(-5844.233 -341.789)"/>
      <path id="Pfad_798" data-name="Pfad 798" class="cls-1" d="M5792.311,344.961c-.465-1.8-3.174-7.762-3.174-7.762s7.031,1.176,8.309,1.133c.321-.012-5.135,6.629-5.135,6.629" transform="translate(-5789.137 -335.711)"/>
    </g>
    <g id="Gruppe_1615" data-name="Gruppe 1615" transform="translate(5726.313)">
      <path id="Pfad_799" data-name="Pfad 799" class="cls-7" d="M6108.167,36.146c1.053-2.548,11-36.146,11-36.146s11.5,5.5,12.791,6.1c.324.151-23.792,30.045-23.792,30.045" transform="translate(-6090.729)"/>
      <path id="Pfad_800" data-name="Pfad 800" class="cls-8" d="M6158.9,185.808c2.5-2,15.539-14.725,15.539-14.725s3.147,6.294,4.131,7.8C6178.818,179.264,6158.9,185.808,6158.9,185.808Z" transform="translate(-6133.315 -143.616)"/>
      <path id="Pfad_801" data-name="Pfad 801" class="cls-8" d="M6007.336,103.715c-.144-3.2.818-21.392.818-21.392s-6.807,1.787-8.59,2.042C5999.116,84.428,6007.336,103.715,6007.336,103.715Z" transform="translate(-5999.547 -69.106)"/>
    </g>
  </g>
</svg>
