<svg xmlns="http://www.w3.org/2000/svg" width="125.562" height="106.018" viewBox="0 0 125.562 106.018">
    <defs>
        <style>
            .cls-1{fill:#d0fbfb}.cls-2{fill:#10cfc9}.cls-3{fill:#ffe904}
        </style>
    </defs>
    <g id="Gruppe_1626" data-name="Gruppe 1626" transform="translate(-5697.977 -1221.855)">
        <path id="Pfad_828" d="M5818.492 1345.181c0-20.638-22.265-37.368-49.73-37.368-20.125 0-37.458 8.983-45.285 21.9-14.94 5.18-25.5 17.859-25.5 32.68 0 19.427 18.137 35.176 40.509 35.176 13.773 0 25.94-5.969 33.259-15.09 26.079-1.157 46.747-17.413 46.747-37.298z" class="cls-1" data-name="Pfad 828" transform="translate(0 -69.696)"/>
        <path id="Pfad_829" d="M6091.559 1248.946c-57.275 19.376-56.99 19.313-63.025 21.545l.037.136s27.028 10.091 27.928 9.306c5-4.358 18.542-15.2 25.292-21.178-5.5 6.354-17.21 20.709-23 25.815-.9.79 12.313 25.61 12.313 25.61l.076-.048c2.058-5.132 20.379-61.186 20.379-61.186z" class="cls-2" data-name="Pfad 829" transform="translate(-268.02 -21.965)"/>
        <path id="Pfad_830" d="M6096.124 1221.856s-54.177 19.3-61.039 21.97l.035.136s26.036 9.878 26.911 9.089c4.861-4.388 18.022-15.309 24.585-21.329-5.355 6.385-16.775 20.8-22.4 25.942-.87.8 11.708 25.481 11.708 25.481l.074-.048c2.021-5.141 20.126-61.241 20.126-61.241z" class="cls-3" data-name="Pfad 830" transform="translate(-273.332)"/>
        <path id="Pfad_831" d="M5846.157 1447.7a1.176 1.176 0 0 0-1.681.185l-.442.556c-6.938 8.594-15.98 14.4-25.461 16.5a10.345 10.345 0 0 0-2.308-5.119 13.723 13.723 0 0 0-4.565-3.387 7.128 7.128 0 0 0-5.855-.46 5.66 5.66 0 0 0-3.285 4.686 6.89 6.89 0 0 0 3.568 6.272 11.643 11.643 0 0 0 6.586 1.278q1.781-.1 3.544-.35c-.01.094-.021.188-.035.283a14.854 14.854 0 0 1-10.309 11.8 28.853 28.853 0 0 1-14.638-.309 39.129 39.129 0 0 1-9.218-3.744 31.896 31.896 0 0 1-2.157-1.339c-.173-.12-.348-.237-.515-.361s-.337-.245-.5-.371-.322-.253-.478-.38c-.075-.064-.156-.128-.225-.191l-.1-.093-.046-.043-.021-.02-.007-.009a1.656 1.656 0 0 0-2.48-.032 2.027 2.027 0 0 0-.114 2.694 1.746 1.746 0 0 0 .2.2l.132.108.056.046.043.034.083.064.156.116c.1.079.2.145.307.218.2.138.4.275.606.4s.4.253.608.373.406.237.61.352c.817.457 1.645.867 2.48 1.249a42.622 42.622 0 0 0 5.11 1.9 54.226 54.226 0 0 0 7.375 1.829 41.241 41.241 0 0 0 7.646.471 25.09 25.09 0 0 0 5.69-.789 16.419 16.419 0 0 0 7.98-5.13 16.953 16.953 0 0 0 4.1-8.7q.073-.532.1-1.056a42.962 42.962 0 0 0 12.456-4.769 52.621 52.621 0 0 0 14.722-12.662c.054-.066.464-.582.464-.582a1.246 1.246 0 0 0-.182-1.718zm-33.569 18.063a9.421 9.421 0 0 1-5.287-.965 4.457 4.457 0 0 1-2.357-3.932 3.23 3.23 0 0 1 1.851-2.64 2.822 2.822 0 0 1 .891-.222c2.228-.2 5.327 1.711 6.774 3.422a7.9 7.9 0 0 1 1.759 3.958 36.24 36.24 0 0 1-3.632.375z" data-name="Pfad 831" transform="translate(-62.411 -182.897)"/>
    </g>
</svg>
